# xmcd
#
# Track frame offsets: 
#        150
#        15831
#        30528
#        45275
#        63465
#        84328
#        97178
#        111749
#        126534
#        147323
#        168992
#        188465
#
# Disc length: 2781 seconds
#
# Revision: 0
# Processed by: cddbd v1.5.2PL0 Copyright (c) Steve Scherf et al.
# Submitted via: ExactAudioCopyFreeDBPlugin 1.0
#
DISCID=9b0adb0c
DTITLE=Hervé Dalmais - Places Traces
DYEAR=2013
DGENRE=
TTITLE0=Birmingham, Alabama
TTITLE1=Brooklin
TTITLE2=Daguerre
TTITLE3=Exile song
TTITLE4=So close away
TTITLE5=Places traces
TTITLE6=Océan
TTITLE7=Les Bignones
TTITLE8=How come?
TTITLE9=Lovers night
TTITLE10=Moon rain
TTITLE11=Sweet privilege
EXTD=
EXTT0=
EXTT1=
EXTT2=
EXTT3=
EXTT4=
EXTT5=
EXTT6=
EXTT7=
EXTT8=
EXTT9=
EXTT10=
EXTT11=
PLAYORDER=
